<svg width="15" height="15" viewBox="0 0 15 15" fill="none" xmlns="http://www.w3.org/2000/svg">
<path d="M14.4805 1.43359L11.6367 0.777344C11.3359 0.695312 11.0078 0.859375 10.8711 1.16016L9.55859 4.22266C9.44922 4.49609 9.53125 4.79688 9.75 4.98828L11.418 6.35547C10.4336 8.43359 8.71094 10.1836 6.57812 11.1953L5.21094 9.52734C5.01953 9.30859 4.71875 9.22656 4.44531 9.33594L1.38281 10.6484C1.08203 10.7852 0.945312 11.1133 1 11.4141L1.65625 14.2578C1.73828 14.5586 1.98438 14.75 2.3125 14.75C9.3125 14.75 15 9.08984 15 2.0625C15 1.76172 14.7812 1.51562 14.4805 1.43359Z" fill="#E8C300"/>
</svg>
