<?xml version="1.0" encoding="utf-8"?>
<!-- Generator: Adobe Illustrator 22.0.1, SVG Export Plug-In . SVG Version: 6.00 Build 0)  -->
<svg version="1.1" id="Слой_1" xmlns="http://www.w3.org/2000/svg" xmlns:xlink="http://www.w3.org/1999/xlink" x="0px" y="0px"
	 viewBox="0 0 261.7 73.9" style="enable-background:new 0 0 261.7 73.9;" xml:space="preserve">
<style type="text/css">
	.st0{clip-path:url(#SVGID_2_);}
	.st1{clip-path:url(#SVGID_4_);fill:#E84342;}
	.st2{clip-path:url(#SVGID_4_);fill:#0BA374;}
	.st3{clip-path:url(#SVGID_2_);fill:#0BA374;}
	.st4{clip-path:url(#SVGID_2_);fill:#E84342;}
</style>
<g>
	<defs>
		<rect id="SVGID_1_" x="2" y="-0.1" width="259.5" height="71"/>
	</defs>
	<clipPath id="SVGID_2_">
		<use xlink:href="#SVGID_1_"  style="overflow:visible;"/>
	</clipPath>
	<g class="st0">
		<defs>
			<rect id="SVGID_3_" x="2" y="-0.1" width="259.5" height="71"/>
		</defs>
		<clipPath id="SVGID_4_">
			<use xlink:href="#SVGID_3_"  style="overflow:visible;"/>
		</clipPath>
		<path class="st1" d="M31.1,14.7c4.6,11.6-2.9,19-10.3,26.4c-6.9,7.6-13,15.5-0.8,29.7c-4.6-11.6,2.9-19,10.3-26.4
			C37.2,36.8,43.3,28.9,31.1,14.7"/>
		<path class="st2" d="M20-0.1c4.6,11.6-2.9,19-10.3,26.4C2.9,33.9-3.2,41.8,9,56.1c-4.6-11.6,2.9-19,10.3-26.4
			C26.2,22,32.3,14.1,20-0.1"/>
	</g>
	<polygon class="st3" points="208.4,45.5 208.4,69.4 218.8,69.4 218.8,60.6 230.3,60.6 230.3,55.4 218.8,55.4 218.8,50.7 
		241.7,50.7 241.7,69.4 252.1,69.4 252.1,50.7 261.5,50.7 261.5,45.5 	"/>
	<polygon class="st3" points="185.9,64.2 185.9,60.1 199.6,60.1 199.6,54.8 185.9,54.8 185.9,50.7 203.5,50.7 203.5,45.5 
		175.6,45.5 175.6,69.4 203.7,69.4 203.7,64.2 	"/>
	<polygon class="st4" points="134.4,45.5 106,45.5 106,50.7 115.3,50.7 115.3,69.4 125.7,69.4 125.7,50.7 134.4,50.7 	"/>
	<polygon class="st4" points="76,45.5 46.9,45.5 46.9,50.7 56.2,50.7 56.2,69.4 66.6,69.4 66.6,50.7 76,50.7 	"/>
	<path class="st4" d="M96.5,45.5H85.3l-13,23.9H79l2.1-4.1h14.6l2.1,4.1h11.6L96.5,45.5z M83.8,60.3l4.8-9.3l4.6,9.3H83.8z"/>
	<polygon class="st3" points="162.8,45.5 162.8,57.4 146.1,45.5 138,45.5 138,69.4 145.1,69.4 145.1,56.2 162.2,69.4 169.9,69.4 
		169.9,45.5 	"/>
</g>
</svg>
