<svg preserveAspectRatio="xMidYMid meet" data-bbox="51 51 98 98" viewBox="51 51 98 98" height="200" width="200" xmlns="http://www.w3.org/2000/svg" data-type="color" role="img"><defs></defs>
    <g>
        <path d="M100 149c-27.018 0-49-21.982-49-49s21.982-49 49-49 49 21.982 49 49-21.982 49-49 49zm0-91.288c-23.317 0-42.288 18.97-42.288 42.288s18.97 42.288 42.288 42.288 42.288-18.97 42.288-42.288S123.317 57.712 100 57.712z" fill="#ffffff" data-color="1"></path>
        <path d="M106.353 95.342H93.647a2.014 2.014 0 0 0-2.014 2.014v30.833c0 1.112.902 2.014 2.014 2.014h12.706a2.014 2.014 0 0 0 2.014-2.014V97.356a2.014 2.014 0 0 0-2.014-2.014z" fill="#f0a330" data-color="2"></path>
        <path d="M100 89.148c5.387 0 9.77-4.383 9.77-9.77s-4.383-9.77-9.77-9.77-9.77 4.383-9.77 9.77c0 5.388 4.383 9.77 9.77 9.77z" fill="#f0a330" data-color="2"></path>
    </g>
</svg>