<svg xmlns="http://www.w3.org/2000/svg" xmlns:xlink="http://www.w3.org/1999/xlink" version="1.1" id="Layer_1" x="0px" y="0px" width="174px" height="36px" viewBox="0 0 174 36" style="enable-background:new 0 0 174 36;" xml:space="preserve" role="img" aria-labelledby="svg-gnso44bsxt-title"><title id="svg-gnso44bsxt-title"></title><g><g id="text"><path class="promo-white" style="fill:#ffffff;" d="M103.1,8.8c-0.6,1.1-1.8,1.8-3.1,1.8c-2.1,0-3.8-1.6-3.8-3.7s1.6-3.7,3.8-3.7c1.3,0,2.5,0.7,3,1.7 l0.1,0.2l1-0.6L104,4.3c-0.8-1.4-2.3-2.2-4-2.2c-2.8,0-4.8,2.1-4.8,4.8s2.1,4.8,4.8,4.8c1.7,0,3.2-0.9,4-2.3l0.1-0.2L103.1,8.8 L103.1,8.8z"></path><polygon class="promo-white" style="fill:#ffffff;" points="107.8,11.4 108.9,11.4 108.9,3.2 111.7,3.2 111.7,2.1 105,2.1 105,3.2 107.8,3.2 "></polygon><path class="promo-white" style="fill:#ffffff;" d="M114.4,8.1h2.1c1.7,0,3-1.3,3-3s-1.3-3-3-3h-3.2v9.3h1.1V8.1z M114.4,3.2h2.1 c1.1,0,1.9,0.8,1.9,1.9S117.6,7,116.5,7h-2.1V3.2z"></path><path class="promo-white" style="fill:#ffffff;" d="M130.4,6.8c0-2.7-2.1-4.8-4.8-4.8s-4.8,2.1-4.8,4.8s2.1,4.8,4.8,4.8 C128.3,11.6,130.4,9.5,130.4,6.8z M125.6,10.5c-2.1,0-3.7-1.6-3.7-3.7s1.6-3.7,3.7-3.7s3.7,1.6,3.7,3.7 C129.4,8.9,127.7,10.5,125.6,10.5z"></path><polygon class="promo-white" style="fill:#ffffff;" points="139.3,11.4 139.3,2.1 138.4,2.1 133.5,9.3 133.5,2.1 132.4,2.1 132.4,11.4 133.3,11.4 138.2,4.2 138.2,11.4 "></polygon><polygon class="promo-white" style="fill:#ffffff;" points="149.1,11.4 150.2,11.4 150.2,2.1 149,2.1 146,7.2 142.9,2.1 141.7,2.1 141.7,11.4 142.8,11.4 142.8,4.1 145.8,9 146.2,9 149.1,4.1 "></polygon><path class="promo-white" style="fill:#ffffff;" d="M102.4,16.3h-5.9v5.3c0,1.4-0.3,2.3-0.8,3h-0.8v2.8H96v-1.7h6.3v1.7h1.1v-2.8h-0.9L102.4,16.3 L102.4,16.3z M101.3,17.3v7.2H97c0.4-0.7,0.6-1.7,0.6-3v-4.2H101.3z"></path><path class="promo-white" style="fill:#ffffff;" d="M106.3,21.6c0,2.7-0.9,3-1.6,3c-0.1,0-0.2,0-0.2,0h-0.2v1h0.2c0.1,0,0.2,0,0.3,0 c1.7,0,2.5-1.3,2.5-4v-4.3h3.9v8.3h1.1v-9.3h-6L106.3,21.6z"></path><path class="promo-white" style="fill:#ffffff;" d="M114.3,19.1c0,1.3,0.9,2.4,2.1,2.7l-2.6,3.7h1.3l2.5-3.7h2.1v3.7h1.1v-9.3h-3.7 C115.6,16.3,114.3,17.5,114.3,19.1z M117.1,17.3h2.6v3.6h-2.6c-1,0-1.7-0.8-1.7-1.8S116.2,17.3,117.1,17.3z"></path><polygon class="promo-white" style="fill:#ffffff;" points="137.1,16.3 135.8,16.3 132.3,20.1 132.3,16.3 131.2,16.3 131.2,20.1 127.7,16.3 126.3,16.3 130.4,20.8 126.2,25.6 127.6,25.6 131.2,21.5 131.2,25.6 132.3,25.6 132.3,21.5 135.9,25.6 137.3,25.6 133,20.8 "></polygon><path class="promo-white" style="fill:#ffffff;" d="M152.5,20.7c0.7-0.5,1.1-1.2,1.1-2c0-1.5-1.2-2.6-2.9-2.6c-1.9,0-2.7,1-3,1.9l-0.1,0.2l0.9,0.5 l0.1-0.2c0.3-0.9,1.1-1.3,2.1-1.3c1.1,0,1.8,0.6,1.8,1.6c0,0.9-0.7,1.6-1.9,1.6h-0.9v1h1.2c1.1,0,1.9,0.6,1.9,1.7 c0,1-0.8,1.7-2.1,1.7c-1.5,0-2.1-0.8-2.3-1.5l-0.1-0.3l-1,0.5l0.1,0.2c0.3,0.8,1,2.1,3.3,2.1c1.9,0,3.2-1.1,3.2-2.7 C153.8,22,153.3,21.2,152.5,20.7z"></path><polygon class="promo-white" style="fill:#ffffff;" points="161.7,20.3 157,20.3 157,16.3 155.9,16.3 155.9,25.6 157,25.6 157,21.3 161.7,21.3 161.7,25.6 162.8,25.6 162.8,16.3 161.7,16.3 "></polygon><polygon class="promo-white" style="fill:#ffffff;" points="145.3,25.4 145.3,16.1 144.4,16.1 139.5,23.3 139.5,16.1 138.4,16.1 138.4,25.4 139.3,25.4 144.2,18.2 144.2,25.4 "></polygon><polygon class="promo-white" style="fill:#ffffff;" points="172.3,25.4 172.3,16.1 171.4,16.1 166.5,23.3 166.5,16.1 165.4,16.1 165.4,25.4 166.3,25.4 171.2,18.2 171.2,25.4 "></polygon></g><g><path class="promo-white" style="fill:#ffffff;" d="M55,21.006V2.004H35.006v5.6c0,1.2,0,4.6-0.6,7.3c-0.3,1.2-1.3,4.4-2.5,6.1H29.7L26.604,27H58 v-5.993H55z M40.3,15.404c0.6-2.5,0.7-5,0.7-7.419h8v13.019H38.6C39.4,19.004,39.9,17.404,40.3,15.404z"></path><polygon class="promo-white" style="fill:#ffffff;" points="18,2 18,21 5.99,21 5.99,2 0,2 0,27 23.997,27 23.997,2 "></polygon><path class="promo-white" style="fill:#ffffff;" d="M72.8,21.8c-3.9,0-7.1-3.2-7.1-7.1s3.2-7.1,7.1-7.1c2.1,0,3.9,0.9,5.2,2.3l2.7-5.2 c-2.2-1.7-4.9-2.8-7.9-2.8c-7,0-12.8,5.7-12.8,12.8s5.7,12.8,12.8,12.8c4.2,0,8-2.1,10.3-5.3l-4.6-3.3 C77.3,20.6,75.2,21.8,72.8,21.8z"></path><polygon style="fill:#ED2D23;" points="20.343,36 9.8,36 17.7,21 28.243,21 "></polygon><polygon style="fill:#00ADEF;" points="85.922,15 75.378,15 83.278,0 93.822,0 "></polygon></g></g></svg>