<?xml version="1.0" encoding="utf-8"?>
<!-- Generator: Adobe Illustrator 21.0.2, SVG Export Plug-In . SVG Version: 6.00 Build 0)  -->
<svg version="1.1" id="Слой_1" xmlns="http://www.w3.org/2000/svg" xmlns:xlink="http://www.w3.org/1999/xlink" x="0px" y="0px"
	 viewBox="0 0 378.4 100.6" style="enable-background:new 0 0 378.4 100.6;" xml:space="preserve">
<style type="text/css">
	.st0{fill-rule:evenodd;clip-rule:evenodd;fill:#A5A5A5;}
	.st1{fill:#ffffff;}
	.st2{fill-rule:evenodd;clip-rule:evenodd;fill:#E3003A;}
	.st3{fill-rule:evenodd;clip-rule:evenodd;fill:#00A6E6;}
	.st4{fill:#FFFFFF;}
</style>
<g>
	<path class="st0" d="M50,19.6L1.9,47.4c-2.5,1.5-2.5,5.1,0,6.6L50,81.7c1.2,0.7,2.6,0.7,3.8,0l48.1-27.8c2.5-1.5,2.5-5.1,0-6.6
		L53.8,19.6C52.6,18.9,51.2,18.9,50,19.6z"/>
	<path class="st1" d="M137.1,25.7h-4.4c-1.9,0-2.8-1.4-2.8-2.8c0-1.4,1-2.8,2.8-2.8h14.9c1.7,0,2.8,1.4,2.8,2.8
		c0,1.4-0.8,2.8-2.8,2.8h-4.4V46c0,2-1.3,3.2-3,3.2s-3-1.1-3-3.2V25.7z"/>
	<path class="st1" d="M151.5,30.4c0-1.9,1.2-3.2,2.9-3.2c1.6,0,2.5,0.9,2.9,2.4c1.1-1.8,3.4-2.7,5.5-2.7c6.3,0,9.4,5.9,9.4,11.5
		c0,5.5-3.7,11-9.6,11c-1.8,0-3.8-0.7-5.3-2v7.1c0,1.9-1.2,3.2-2.9,3.2c-1.7,0-2.9-1.3-2.9-3.2V30.4z M161.9,44.1
		c3,0,4.5-3.2,4.5-5.9c0-2.8-1.5-5.9-4.5-5.9c-3.1,0-4.6,2.9-4.6,5.7C157.3,40.9,158.7,44.1,161.9,44.1z"/>
	<path class="st1" d="M180.7,40.1c0.4,2.9,2.8,4.2,5.5,4.2c3,0,5.1-2.3,6.6-2.3c1.3,0,2.4,1.3,2.4,2.5c0,2.5-5.2,4.9-9.5,4.9
		c-6.6,0-10.9-4.8-10.9-11.2c0-5.9,4.3-11.3,10.4-11.3c6.3,0,10.5,5.7,10.5,10.6c0,1.7-0.8,2.6-2.5,2.6H180.7z M189.9,36.2
		c-0.3-2.5-1.9-4.4-4.7-4.4c-2.6,0-4.3,2-4.6,4.4H189.9z"/>
	<path class="st1" d="M202.7,32.5h-4.1c-1.6,0-2.5-1-2.5-2.5c0-1.5,1.1-2.5,2.5-2.5h14c1.5,0,2.8,0.7,2.8,2.5c0,1.8-1.3,2.5-2.8,2.5
		h-4.1V46c0,1.9-1.2,3.2-2.9,3.2c-1.7,0-2.9-1.3-2.9-3.2V32.5z"/>
	<path class="st1" d="M234.7,49.2c-1.7,0-2.9-1.3-2.9-3.2v-8.6h-0.1l-8,10.5c-0.6,0.8-1.4,1.3-2.4,1.3c-1.7,0-2.9-1.3-2.9-3.2V30.4
		c0-1.9,1.2-3.2,2.9-3.2s2.9,1.3,2.9,3.2v8.4h0.1l7.4-9.9c0.8-1.1,1.8-1.8,2.9-1.8c1.7,0,2.9,1.3,2.9,3.2V46
		C237.6,47.9,236.4,49.2,234.7,49.2z"/>
	<path class="st1" d="M257.9,49.2c-1.7,0-2.9-1.3-2.9-3.2v-8.6h-0.1l-8,10.5c-0.6,0.8-1.4,1.3-2.4,1.3c-1.7,0-2.9-1.3-2.9-3.2V30.4
		c0-1.9,1.2-3.2,2.9-3.2c1.7,0,2.9,1.3,2.9,3.2v8.4h0.1L255,29c0.8-1.1,1.8-1.8,2.9-1.8c1.7,0,2.9,1.3,2.9,3.2V46
		C260.8,47.9,259.6,49.2,257.9,49.2z M247.1,19.7c2.5,0,1.9,2.8,4.4,2.8c2.2,0,1.8-2.8,4.4-2.8c1.1,0,1.8,1.4,1.8,2.4
		c0,2.9-3.8,4.2-6.3,4.2c-2.5,0-6.3-1.2-6.3-4.2C245.3,21,245.8,19.7,247.1,19.7z"/>
	<path class="st1" d="M280,25.7h-4.4c-1.9,0-2.8-1.4-2.8-2.8c0-1.4,1-2.8,2.8-2.8h14.9c1.7,0,2.8,1.4,2.8,2.8c0,1.4-0.8,2.8-2.8,2.8
		H286V46c0,2-1.3,3.2-3,3.2s-3-1.1-3-3.2V25.7z"/>
	<path class="st1" d="M294.4,30.4c0-1.9,1.2-3.2,2.9-3.2c1.6,0,2.5,0.9,2.9,2.4c1.1-1.8,3.4-2.7,5.5-2.7c6.3,0,9.4,5.9,9.4,11.5
		c0,5.5-3.7,11-9.6,11c-1.8,0-3.8-0.7-5.3-2v7.1c0,1.9-1.2,3.2-2.9,3.2s-2.9-1.3-2.9-3.2V30.4z M304.8,44.1c3,0,4.5-3.2,4.5-5.9
		c0-2.8-1.5-5.9-4.5-5.9c-3.1,0-4.6,2.9-4.6,5.7C300.2,40.9,301.6,44.1,304.8,44.1z"/>
	<path class="st1" d="M323,40.1c0.4,2.9,2.8,4.2,5.5,4.2c3,0,5.1-2.3,6.6-2.3c1.3,0,2.4,1.3,2.4,2.5c0,2.5-5.2,4.9-9.5,4.9
		c-6.6,0-10.9-4.8-10.9-11.2c0-5.9,4.3-11.3,10.4-11.3c6.3,0,10.5,5.7,10.5,10.6c0,1.7-0.8,2.6-2.5,2.6H323z M332.1,36.2
		c-0.3-2.5-1.9-4.4-4.7-4.4c-2.6,0-4.3,2-4.6,4.4H332.1z"/>
	<path class="st1" d="M355.1,33.4c-1.5,0-2.8-1.1-4.6-1.1c-3.3,0-4.9,3-4.9,5.9c0,2.9,1.7,5.9,4.9,5.9c1.5,0,3.6-1.2,4.3-1.2
		c1.4,0,2.5,1.2,2.5,2.5c0,3-5,4-7.1,4c-6.3,0-10.4-5.1-10.4-11.2c0-5.9,4.3-11.3,10.4-11.3c2.3,0,7.1,0.8,7.1,3.7
		C357.4,31.8,356.5,33.4,355.1,33.4z"/>
	<path class="st1" d="M365.7,32.5h-4.1c-1.6,0-2.5-1-2.5-2.5c0-1.5,1.1-2.5,2.5-2.5h14c1.5,0,2.8,0.7,2.8,2.5c0,1.8-1.3,2.5-2.8,2.5
		h-4.1V46c0,1.9-1.2,3.2-2.9,3.2c-1.7,0-2.9-1.3-2.9-3.2V32.5z"/>
	
	<path class="st2" d="M50,0.6L1.9,28.4c-2.5,1.5-2.5,5.1,0,6.6L50,62.7c1.2,0.7,2.6,0.7,3.8,0L101.9,35c2.5-1.5,2.5-5.1,0-6.6
		L53.8,0.6C52.6-0.1,51.2-0.1,50,0.6z"/>
	<path class="st3" d="M50,37.9L1.9,65.6c-2.5,1.5-2.5,5.1,0,6.6L50,100c1.2,0.7,2.6,0.7,3.8,0l48.1-27.8c2.5-1.5,2.5-5.1,0-6.6
		L53.8,37.9C52.6,37.2,51.2,37.2,50,37.9z"/>
	<path d="M91.2,41.2L53.8,19.6c-1.2-0.7-2.6-0.7-3.8,0L12.7,41.2l15.8,9.1l-16.4,9.5L50,81.7c1.2,0.7,2.6,0.7,3.8,0l37.9-21.9
		l-16.4-9.5L91.2,41.2z"/>
	<g>
		<path class="st4" d="M62.2,41.6c0,3-1.3,5.6-3.9,7.2c3.4,1.6,5.8,4.7,5.8,8.5c0,5.7-5.2,10.5-11.9,10.5c-7,0-11.4-5.2-11.4-8.9
			c0-1.8,1.9-3.2,3.6-3.2c3.2,0,2.5,5.5,7.8,5.5c2.5,0,4.4-1.9,4.4-4.4c0-6.6-8-1.8-8-7.3c0-5,6.7-1.6,6.7-6.9
			c0-1.8-1.3-3.2-3.4-3.2c-4.5,0-3.9,4.6-7.1,4.6c-1.9,0-3.1-1.8-3.1-3.5c0-3.7,5.1-7.7,10.3-7.7C58.9,33,62.2,37.9,62.2,41.6z"/>
	</g>
</g>
</svg>
