<svg preserveAspectRatio="xMidYMid meet" data-bbox="5 5 2128 2128" viewBox="0 0 2137 2137" height="217.16" width="217.16" xmlns="http://www.w3.org/2000/svg" shape-rendering="geometricPrecision" text-rendering="geometricPrecision" image-rendering="optimizeQuality" fill-rule="evenodd" clip-rule="evenodd" data-type="ugc" role="img">
    <g>
        <path d="M169 1512V626c0-75 16-137 39-190 10-24 26-53 41-73 8-11 15-22 24-32 6-5 8-9 14-15l43-42c33-29 66-47 106-66 54-26 129-39 190-39h882c66 0 132 12 189 38 7 3 11 5 19 9 12 4 43 24 54 31 41 27 85 71 114 112 51 72 83 162 83 260v898c0 95-29 180-81 257-12 17-48 61-66 75-13 10-25 23-46 37-75 50-156 81-257 81H619c-61 0-111-12-165-32-46-16-104-52-138-87l-16-14c-37-36-72-88-92-135-23-53-39-112-39-187zM5 598v940c0 24 2 47 6 69 18 117 56 195 125 288l26 31c9 10 22 25 37 39 4 4 6 4 10 8s5 6 9 9c19 15 29 25 55 42 39 26 77 47 122 65 67 27 144 44 221 44h902c98 0 184-25 251-56l97-55c18-13 37-27 53-41l50-48c17-20 46-55 58-75 45-72 68-117 89-201 9-39 17-89 17-137V616c0-175-89-360-216-462-15-12-24-21-42-34-49-33-91-59-147-78-61-21-121-37-190-37H598c-50 0-85 8-130 18-10 2-19 5-28 8-26 7-83 30-106 43l-45 27c-56 34-115 90-155 142-16 21-32 44-46 67-5 9-8 15-13 24C34 411 5 510 5 598z" fill="#ffffff" stroke="#ffffff" stroke-width="9.3"></path>
        <path d="M1477 1068c0 107-45 214-120 289-50 51-124 93-197 109-105 23-198 8-288-40-31-16-65-41-89-65l-28-30c-21-24-48-67-60-94-15-39-29-75-33-120-7-77 0-130 25-198 12-33 35-71 56-98 58-78 138-127 233-151 67-17 135-12 202 4 22 6 39 14 57 21 15 6 37 18 50 27l23 15c28 19 56 47 78 74 6 7 12 15 17 23 21 30 39 64 52 102 13 39 22 89 22 132zm-982-15c0 103 15 174 52 254 23 49 45 85 81 128l52 54c18 18 56 48 78 61 7 5 14 9 21 13 78 47 184 78 272 78s130-7 209-33c17-6 35-13 50-20 43-22 59-31 97-58 4-3 6-5 10-8 7-5 14-10 20-16l18-16c4-4 5-4 9-8l42-45c10-11 22-28 31-39 40-54 71-126 87-191 29-115 21-220-16-332-21-62-70-146-118-194l-25-27c-17-16-49-41-67-55-35-26-74-45-113-62-56-24-139-42-202-42-77 0-137 7-206 33-32 12-66 26-95 43-15 9-29 17-43 27l-39 31c-4 3-5 4-9 8-12 9-53 52-62 62-23 28-38 50-57 82-45 73-77 184-77 272z" fill="#f0a330" stroke="#f0a330" stroke-width="9.3"></path>
        <path d="M1641 409c0 18 0 25 8 41l12 18c1 1 1 1 2 3l2 1c49 49 140 20 140-62 0-68-88-106-140-56-11 11-24 32-24 55z" fill="#ffffff" stroke="#ffffff" stroke-width="9.3"></path>
    </g>
</svg>