<svg preserveAspectRatio="xMidYMid meet" data-bbox="67 49 66 101.999" viewBox="67 49 66 101.999" height="200" width="200" xmlns="http://www.w3.org/2000/svg" data-type="color" role="img"><defs><style>#comp-k918nghx svg [data-color="1"] {fill: #E3B333;}
#comp-k918nghx svg [data-color="2"] {fill: #FFFFFF;}</style></defs>
    <g>
        <path d="M129.664 143.933H87.851c-1.843 0-3.336 1.505-3.336 3.362 0 1.857 1.493 3.362 3.336 3.362h41.813c1.843 0 3.336-1.505 3.336-3.362 0-1.857-1.493-3.362-3.336-3.362z" fill="#f0a330" data-color="1"></path>
        <path d="M102.029 63.409h-.611V52.362c0-1.857-1.493-3.362-3.336-3.362h-19.25c-1.843 0-3.336 1.505-3.336 3.362v11.047h-6.494A2.01 2.01 0 0 0 67 65.426v26.505c0 1.114.896 2.017 2.002 2.017s2.002-.903 2.002-2.017V67.443h4.493v61.366c0 .523.121 1.038.353 1.505l9.354 18.828a3.332 3.332 0 0 0 2.945 1.857h.038a3.334 3.334 0 0 0 2.948-1.788l9.896-18.828a3.381 3.381 0 0 0 .388-1.574V67.443h.611a2.01 2.01 0 0 0 2.002-2.017 2.01 2.01 0 0 0-2.003-2.017zm-19.861-7.685h12.578v7.684H82.168v-7.684zm12.578 11.719v58.446H82.168V67.443h12.578zm-6.477 72.853l-5.153-10.372h10.605l-5.452 10.372z" fill="#ffffff" data-color="2"></path>
    </g>
</svg>