<svg preserveAspectRatio="xMidYMid meet" data-bbox="58 49 84 102.004" viewBox="58 49 84 102.004" height="200" width="200" xmlns="http://www.w3.org/2000/svg" data-type="color" role="img"><defs></defs>
    <g>
        <path d="M138.631 49H69.086a3.367 3.367 0 0 0-3.369 3.366v23.406h-4.348A3.367 3.367 0 0 0 58 79.138a3.367 3.367 0 0 0 3.369 3.366h4.348v7.001h-4.348A3.367 3.367 0 0 0 58 92.871a3.367 3.367 0 0 0 3.369 3.366h4.348v7h-4.348A3.367 3.367 0 0 0 58 106.603a3.367 3.367 0 0 0 3.369 3.366h4.348v7.001h-4.348A3.367 3.367 0 0 0 58 120.336a3.367 3.367 0 0 0 3.369 3.366h4.348v23.936a3.367 3.367 0 0 0 3.369 3.366h69.545a3.367 3.367 0 0 0 3.369-3.366V52.366A3.367 3.367 0 0 0 138.631 49zm-3.369 95.269H72.455v-20.57h2.839a3.367 3.367 0 0 0 3.369-3.366 3.367 3.367 0 0 0-3.369-3.366h-2.839v-7.001h2.839a3.367 3.367 0 0 0 3.369-3.366 3.367 3.367 0 0 0-3.369-3.366h-2.839v-7h2.839a3.367 3.367 0 0 0 3.369-3.366 3.367 3.367 0 0 0-3.369-3.366h-2.839v-7.001h2.839a3.367 3.367 0 0 0 3.369-3.366 3.367 3.367 0 0 0-3.369-3.366h-2.839V55.731h62.807v88.538z" fill="#ffffff" data-color="1"></path>
        <path d="M118.667 68.42h-27.81a3.367 3.367 0 0 0-3.369 3.366v23.78a3.367 3.367 0 0 0 3.369 3.366h27.81a3.367 3.367 0 0 0 3.369-3.366v-23.78a3.367 3.367 0 0 0-3.369-3.366z" fill="#f0a330" data-color="2"></path>
    </g>
</svg>