<svg preserveAspectRatio="xMidYMid meet" data-bbox="22 21.56 156.846 156.88" xmlns="http://www.w3.org/2000/svg" viewBox="22 21.56 156.846 156.88" height="200" width="200" data-type="color" role="img" aria-labelledby="svgcid-weprf4-al515m"><defs></defs><title id="svgcid-weprf4-al515m"></title>
    <g>
        <path fill="#ffffff" d="M63.49 121.887c1.949 0 3.397.431 4.345 1.293.948.856 1.423 1.982 1.423 3.373 0 1.391-.48 2.512-1.443 3.356-.96.851-2.402 1.27-4.324 1.27H51.205v40.394c0 2.327-.52 4.056-1.558 5.177-1.037 1.126-2.376 1.69-4.02 1.69-1.67 0-3.028-.57-4.076-1.707-1.05-1.138-1.575-2.856-1.575-5.16V131.18H27.69c-1.923 0-3.354-.419-4.287-1.27-.937-.844-1.403-1.965-1.403-3.356 0-1.442.486-2.58 1.46-3.413.97-.833 2.382-1.253 4.23-1.253h35.8zm49.761 38.767c1.428-3.011 2.141-6.718 2.141-11.113 0-4.075-.659-7.598-1.972-10.586-1.315-2.983-3.192-5.236-5.631-6.77-2.443-1.528-5.241-2.293-8.402-2.293-2.25 0-4.33.426-6.238 1.27a13.692 13.692 0 0 0-4.93 3.7c-1.38 1.616-2.466 3.685-3.264 6.202-.796 2.517-1.193 5.339-1.193 8.477 0 3.16.397 6.016 1.193 8.567.798 2.558 1.922 4.673 3.376 6.357 1.454 1.683 3.123 2.936 5.008 3.775 1.882.833 3.948 1.247 6.201 1.247 2.881 0 5.53-.72 7.944-2.161 2.413-1.443 4.336-3.666 5.767-6.672zm.985-36.203c4.135 2.339 7.264 5.666 9.388 9.975 2.123 4.31 3.186 9.374 3.186 15.189 0 4.299-.583 8.206-1.747 11.718-1.161 3.516-2.908 6.562-5.232 9.142-2.328 2.58-5.184 4.552-8.571 5.919-3.391 1.363-7.27 2.046-11.646 2.046-4.347 0-8.243-.701-11.68-2.103-3.439-1.41-6.31-3.385-8.611-5.936-2.302-2.558-4.04-5.627-5.216-9.218-1.174-3.592-1.764-7.47-1.764-11.642 0-4.277.616-8.196 1.842-11.758 1.224-3.57 3-6.604 5.327-9.103 2.328-2.505 5.158-4.42 8.497-5.747 3.339-1.327 7.132-1.994 11.378-1.994 5.764 0 10.715 1.173 14.849 3.512zm51.79 19.325c.933-1.264 1.401-2.925 1.401-4.971 0-2.453-.718-4.447-2.16-5.993-1.618-1.643-4.946-2.466-9.977-2.466h-7.585v16.993h7.585c2.655 0 4.876-.276 6.657-.833 1.782-.557 3.141-1.465 4.078-2.73zm11.53-12.366c.86 2.126 1.29 4.51 1.29 7.166 0 5.666-1.747 9.959-5.236 12.878-3.488 2.919-8.686 4.379-15.587 4.379h-10.318v15.74c0 2.253-.529 3.959-1.592 5.12-1.064 1.167-2.402 1.747-4.02 1.747-1.695 0-3.06-.574-4.097-1.724-1.038-1.15-1.555-2.838-1.555-5.063v-42.858c0-2.483.57-4.252 1.707-5.31 1.138-1.063 2.945-1.598 5.425-1.598h14.45c4.272 0 7.56.333 9.861.989 2.275.632 4.241 1.683 5.896 3.149 1.658 1.466 2.916 3.259 3.775 5.385zm-45.84-75.179c1.88 2.237 1.443 5.46-.972 7.2-.973.7-2.628.858-3.86.858h-12l-.203 36.14c0 2.833-2.655 4.86-5.715 4.86H90.801c-3.06 0-5.918-2.166-5.918-5l.25-36-12.709-.03c-3.06 0-5.54-2.044-5.54-4.878a4.9 4.9 0 0 1 1.166-3.15l27.46-32.69c1.878-2.237 5.36-2.64 7.775-.9.364.261.69.563.973.9l27.458 32.69z" fill-rule="evenodd" data-color="1"></path>
    </g>
</svg>