<svg width="102" height="39" viewBox="0 0 102 39" fill="none" xmlns="http://www.w3.org/2000/svg">
<g clip-path="url(#clip0)">
<path d="M83.5303 36.8146C93.0967 36.8146 100.881 28.9357 100.881 19.2529C100.881 9.56434 93.0967 1.69119 83.5303 1.69119C73.9621 1.69119 66.1801 9.56434 66.1801 19.2529C66.1801 28.9357 73.9621 36.8146 83.5303 36.8146ZM83.5303 12.9907C86.9396 12.9907 89.716 15.7998 89.716 19.251C89.716 22.7022 86.9377 25.5075 83.5285 25.5075C80.1173 25.5075 77.3447 22.7022 77.3447 19.2491C77.3447 15.7941 80.1192 12.9869 83.5285 12.9869L83.5303 12.9907ZM18.0708 36.8146C27.6371 36.8146 35.421 28.9357 35.421 19.2529C35.421 9.56434 27.6371 1.69119 18.0708 1.69119C8.50627 1.69119 0.72052 9.56434 0.72052 19.2529C0.72052 28.9357 8.50627 36.8146 18.0708 36.8146ZM18.0708 12.9907C21.4819 12.9907 24.2564 15.7998 24.2564 19.251C24.2564 22.7022 21.4819 25.5075 18.0708 25.5075C14.6615 25.5075 11.8889 22.7022 11.8889 19.2491C11.8889 15.7941 14.6634 12.9869 18.0708 12.9869V12.9907ZM50.791 12.5951L45.4644 1.92051H32.9923L44.6415 25.2724V36.2662H56.9425V25.2724L68.5917 1.92051H56.1139L50.7929 12.5951H50.791Z" fill="#888888"/>
</g>
<defs>
<clipPath id="clip0">
<rect width="100.719" height="38.2192" fill="white" transform="translate(0.72052 0.219219)"/>
</clipPath>
</defs>
</svg>
