<svg width="148" height="32" viewBox="0 0 148 32" fill="none" xmlns="http://www.w3.org/2000/svg">
<g clip-path="url(#clip0)">
<path d="M52.579 18.0305L51.7071 20.4858H51.6344C51.4891 19.9322 51.2227 19.0897 50.7868 18.0786L46.1125 6.40363H41.5352V25.0114H44.5625V13.529C44.5625 12.8068 44.5625 11.9884 44.5383 10.9773C44.5141 10.4718 44.4656 10.0867 44.4414 9.79781H44.5141C44.6594 10.52 44.8289 11.0496 44.95 11.3866L50.5688 24.9633H52.7001L58.2704 11.2662C58.3915 10.9533 58.5126 10.3274 58.6337 9.79781H58.7063C58.6337 11.1699 58.5852 12.3976 58.561 13.1438V24.9392H61.7821V6.35549H57.3743L52.579 18.0305ZM64.8337 11.6032H67.9822V24.9392H64.8337V11.6032ZM66.4322 5.97033C65.8993 5.97033 65.4634 6.16291 65.1001 6.49992C64.7368 6.83693 64.5431 7.27023 64.5431 7.79982C64.5431 8.30533 64.7368 8.73863 65.1001 9.07564C65.4634 9.41265 65.8993 9.58116 66.4322 9.58116C66.965 9.58116 67.4251 9.38858 67.7642 9.07564C68.1275 8.73863 68.3212 8.30533 68.3212 7.79982C68.3212 7.2943 68.1275 6.861 67.7642 6.49992C67.4494 6.16291 66.9892 5.97033 66.4322 5.97033ZM79.1471 11.4829C78.5658 11.3625 77.9603 11.2903 77.3791 11.2903C75.9502 11.2903 74.6424 11.6032 73.5525 12.2291C72.4627 12.855 71.5908 13.7216 71.0337 14.8048C70.4525 15.9121 70.1619 17.188 70.1619 18.6564C70.1619 19.9322 70.4525 21.0636 71.0095 22.0987C71.5666 23.1097 72.3416 23.9282 73.383 24.4818C74.376 25.0355 75.5385 25.3243 76.8463 25.3243C78.3478 25.3243 79.6315 25.0114 80.6486 24.4337L80.6729 24.4096V21.5209L80.5518 21.6172C80.0916 21.9542 79.5588 22.2431 79.026 22.4116C78.4689 22.6042 77.9604 22.7005 77.5244 22.7005C76.265 22.7005 75.272 22.3394 74.5697 21.545C73.8431 20.7747 73.4799 19.7155 73.4799 18.3916C73.4799 17.0195 73.8431 15.9362 74.5939 15.1418C75.3447 14.3474 76.3377 13.9382 77.5486 13.9382C78.5658 13.9382 79.6072 14.2752 80.5518 14.9492L80.6729 15.0455V11.9884L80.6486 11.9643C80.2369 11.7958 79.7768 11.6032 79.1471 11.4829ZM89.537 11.3866C88.762 11.3866 88.0354 11.6273 87.4057 12.1328C86.8729 12.5661 86.5096 13.192 86.1948 13.9382H86.1705V11.6032H83.0221V24.9392H86.1705V18.1268C86.1705 16.9713 86.4127 16.0084 86.9455 15.3103C87.4784 14.5882 88.1565 14.2271 88.9799 14.2271C89.2706 14.2271 89.5612 14.2993 89.9245 14.3474C90.2635 14.4437 90.5057 14.54 90.6753 14.6604L90.7963 14.7567V11.6273L90.7237 11.6032C90.5057 11.4588 90.0698 11.3866 89.537 11.3866ZM98.1105 11.3144C95.9065 11.3144 94.1386 11.9643 92.9034 13.2401C91.644 14.516 91.0385 16.2732 91.0385 18.4879C91.0385 20.5581 91.6682 22.2431 92.8792 23.4708C94.0901 24.6744 95.737 25.3003 97.7956 25.3003C99.9511 25.3003 101.671 24.6503 102.906 23.3504C104.165 22.0505 104.771 20.3173 104.771 18.1749C104.771 16.0566 104.189 14.3715 103.003 13.1438C101.864 11.9162 100.193 11.3144 98.1105 11.3144ZM100.629 21.5691C100.048 22.3153 99.1276 22.6764 97.9894 22.6764C96.8511 22.6764 95.9308 22.3153 95.2768 21.5209C94.6229 20.7747 94.3081 19.6915 94.3081 18.3194C94.3081 16.8991 94.6472 15.8158 95.2768 15.0455C95.9308 14.2752 96.8269 13.8901 97.9651 13.8901C99.0792 13.8901 99.9511 14.2512 100.581 14.9974C101.21 15.7436 101.55 16.8269 101.55 18.2471C101.501 19.6915 101.235 20.8229 100.629 21.5691ZM111.794 17.1398C110.801 16.7306 110.171 16.4177 109.881 16.1529C109.639 15.9121 109.518 15.5751 109.518 15.1418C109.518 14.7807 109.663 14.4197 110.026 14.1789C110.389 13.9382 110.801 13.8179 111.407 13.8179C111.939 13.8179 112.496 13.9141 113.029 14.0586C113.562 14.203 114.046 14.4197 114.434 14.7085L114.555 14.8048V11.868L114.482 11.8439C114.119 11.6995 113.635 11.5551 113.053 11.4347C112.472 11.3384 111.939 11.2903 111.503 11.2903C110.002 11.2903 108.767 11.6514 107.798 12.4457C106.829 13.192 106.369 14.203 106.369 15.3825C106.369 16.0084 106.466 16.5621 106.684 17.0195C106.902 17.4768 107.217 17.9101 107.653 18.2712C108.089 18.6082 108.718 18.9934 109.59 19.3545C110.317 19.6674 110.874 19.9081 111.213 20.1007C111.552 20.2933 111.77 20.5099 111.939 20.6784C112.061 20.871 112.133 21.1117 112.133 21.4247C112.133 22.3153 111.455 22.7486 110.075 22.7486C109.542 22.7486 108.985 22.6523 108.331 22.4357C107.677 22.219 107.071 21.9061 106.563 21.545L106.442 21.4487V24.5059L106.514 24.53C106.975 24.7466 107.532 24.8911 108.21 25.0596C108.888 25.1799 109.493 25.2762 110.026 25.2762C111.649 25.2762 112.981 24.9151 113.925 24.1207C114.894 23.3504 115.403 22.3635 115.403 21.0876C115.403 20.197 115.161 19.4026 114.628 18.8008C113.925 18.2231 113.053 17.6213 111.794 17.1398ZM123.71 11.3144C121.506 11.3144 119.738 11.9643 118.503 13.2401C117.268 14.516 116.638 16.2732 116.638 18.4879C116.638 20.5581 117.268 22.2431 118.479 23.4708C119.689 24.6744 121.336 25.3003 123.395 25.3003C125.55 25.3003 127.27 24.6503 128.505 23.3504C129.765 22.0505 130.37 20.3173 130.37 18.1749C130.37 16.0566 129.789 14.3715 128.602 13.1438C127.464 11.9162 125.793 11.3144 123.71 11.3144ZM126.204 21.5691C125.623 22.3153 124.703 22.6764 123.564 22.6764C122.402 22.6764 121.506 22.3153 120.852 21.5209C120.198 20.7747 119.883 19.6915 119.883 18.3194C119.883 16.8991 120.222 15.8158 120.852 15.0455C121.506 14.2752 122.402 13.8901 123.54 13.8901C124.63 13.8901 125.526 14.2512 126.156 14.9974C126.786 15.7436 127.125 16.8269 127.125 18.2471C127.125 19.6915 126.81 20.8229 126.204 21.5691ZM147.202 14.1789V11.6032H144.029V7.65539L143.933 7.67946L140.929 8.57013L140.857 8.5942V11.6032H136.11V9.91817C136.11 9.14786 136.304 8.54605 136.643 8.1609C136.982 7.77575 137.49 7.58317 138.12 7.58317C138.556 7.58317 139.016 7.67946 139.525 7.89611L139.646 7.96832V5.24817L139.573 5.2241C139.137 5.07966 138.556 4.98338 137.805 4.98338C136.861 4.98338 136.037 5.20002 135.286 5.56111C134.536 5.97033 133.979 6.52399 133.567 7.27023C133.155 7.9924 132.937 8.81085 132.937 9.74966V11.6032H130.733V14.1549H132.937V24.9392H136.11V14.1789H140.857V21.0395C140.857 23.8559 142.189 25.2762 144.853 25.2762C145.289 25.2762 145.749 25.204 146.185 25.1318C146.645 25.0355 146.984 24.9151 147.178 24.8188L147.202 24.7948V22.219L147.081 22.3153C146.887 22.4357 146.718 22.532 146.427 22.6042C146.185 22.6764 145.967 22.7005 145.797 22.7005C145.168 22.7005 144.732 22.556 144.417 22.195C144.126 21.858 143.981 21.3043 143.981 20.4858V14.1789H147.202Z" fill="#888888"/>
<path d="M0.943054 0.144424H15.7892V14.9007H0.943054V0.144424Z" fill="#777777"/>
<path d="M17.3405 0.14473H32.1867V14.901H17.3405V0.14473Z" fill="#888888"/>
<path d="M0.943054 16.4417H15.7892V31.1979H0.943054V16.4417Z" fill="#888888"/>
<path d="M17.3405 16.4417H32.1867V31.1979H17.3405V16.4417Z" fill="#999999"/>
</g>
<defs>
<clipPath id="clip0">
<rect width="146.282" height="31.0531" fill="white" transform="translate(0.943451 0.14473)"/>
</clipPath>
</defs>
</svg>
