<svg width="125" height="39" viewBox="0 0 125 39" fill="none" xmlns="http://www.w3.org/2000/svg">
<g clip-path="url(#clip0)">
<path fill-rule="evenodd" clip-rule="evenodd" d="M77.4422 30.4511C70.2653 35.8833 59.863 38.7817 50.9068 38.7817C38.3487 38.7817 27.0432 34.0119 18.4901 26.0787C17.8182 25.4549 18.4202 24.6047 19.2266 25.0905C28.457 30.6056 39.8701 33.9235 51.6594 33.9235C59.6103 33.9235 68.3569 32.2342 76.3992 28.7286C77.6142 28.1987 78.6302 29.5457 77.4422 30.4511Z" fill="#888888"/>
<path fill-rule="evenodd" clip-rule="evenodd" d="M80.4283 26.9449C79.5144 25.7414 74.3643 26.3763 72.0526 26.6578C71.3484 26.7462 71.2409 26.1168 71.8752 25.6641C75.977 22.6996 82.7076 23.5553 83.4925 24.549C84.2774 25.5482 83.2882 32.4766 79.4337 35.7834C78.8424 36.2913 78.2779 36.0208 78.5413 35.3473C79.4068 33.128 81.3475 28.1539 80.4283 26.9449Z" fill="#888888"/>
<path fill-rule="evenodd" clip-rule="evenodd" d="M72.21 4.73552V1.85377C72.21 1.41764 72.5325 1.12505 72.9196 1.12505H85.483C85.8862 1.12505 86.2088 1.42316 86.2088 1.85377V4.32148C86.2034 4.73552 85.8647 5.27654 85.2626 6.13223L78.7524 15.6774C81.1716 15.6166 83.7251 15.9865 85.9185 17.2563C86.4131 17.5433 86.5475 17.9629 86.5851 18.3769V21.4519C86.5851 21.8715 86.1335 22.3628 85.6605 22.1089C81.7952 20.0276 76.6612 19.8013 72.3874 22.131C71.9519 22.3739 71.495 21.888 71.495 21.4685V18.5481C71.495 18.0788 71.5003 17.2783 71.9573 16.5662L79.4997 5.45872H72.9357C72.5325 5.45872 72.21 5.16613 72.21 4.73552Z" fill="#bbb"/>
<path fill-rule="evenodd" clip-rule="evenodd" d="M26.3796 22.7157H22.5573C22.1918 22.6881 21.9015 22.4065 21.8746 22.0477V1.903C21.8746 1.49999 22.2025 1.17979 22.6111 1.17979H26.1753C26.5462 1.19635 26.8419 1.48895 26.8688 1.85331V4.48664H26.9387C27.8687 1.94164 29.6159 0.754707 31.9705 0.754707C34.3628 0.754707 35.8573 1.94164 36.9325 4.48664C37.8571 1.94164 39.9591 0.754707 42.2116 0.754707C43.8136 0.754707 45.5662 1.43374 46.636 2.95743C47.8455 4.65225 47.5982 7.11444 47.5982 9.273L47.5929 21.9869C47.5929 22.3899 47.2649 22.7157 46.8564 22.7157H43.0395C42.6578 22.6881 42.3514 22.3734 42.3514 21.9869V11.3101C42.3514 10.4599 42.4266 8.34002 42.2439 7.53401C41.9589 6.18146 41.1042 5.80054 39.9967 5.80054C39.0721 5.80054 38.1044 6.43541 37.712 7.4512C37.3195 8.46699 37.3572 10.1673 37.3572 11.3101V21.9869C37.3572 22.3899 37.0292 22.7157 36.6207 22.7157H32.8038C32.4167 22.6881 32.1157 22.3734 32.1157 21.9869L32.1103 11.3101C32.1103 9.06322 32.4705 5.75637 29.7557 5.75637C27.0086 5.75637 27.1161 8.9804 27.1161 11.3101V21.9869C27.1161 22.3899 26.7882 22.7157 26.3796 22.7157" fill="#bbb"/>
<path fill-rule="evenodd" clip-rule="evenodd" d="M97.027 0.754707C102.699 0.754707 105.768 5.75638 105.768 12.1161C105.768 18.2605 102.376 23.1352 97.027 23.1352C91.4576 23.1352 88.4256 18.1336 88.4256 11.9008C88.4256 5.6294 91.4952 0.754707 97.027 0.754707ZM97.0593 4.86756C94.2423 4.86756 94.0649 8.80927 94.0649 11.2659C94.0649 13.7281 94.0273 18.9837 97.027 18.9837C99.9891 18.9837 100.129 14.7439 100.129 12.1603C100.129 10.4599 100.059 8.42835 99.5591 6.81633C99.129 5.4141 98.2742 4.86756 97.0593 4.86756Z" fill="#bbb"/>
<path fill-rule="evenodd" clip-rule="evenodd" d="M113.12 22.7157H109.313C108.932 22.6881 108.625 22.3734 108.625 21.9869L108.62 1.83675C108.652 1.46686 108.969 1.17979 109.356 1.17979H112.899C113.232 1.19635 113.507 1.42822 113.582 1.7429V4.82339H113.652C114.722 2.06861 116.221 0.754707 118.861 0.754707C120.576 0.754707 122.248 1.38958 123.323 3.12857C124.323 4.74058 124.323 7.4512 124.323 9.39997V22.0808C124.28 22.4341 123.963 22.7157 123.586 22.7157H119.753C119.404 22.6881 119.114 22.4231 119.076 22.0808V11.139C119.076 8.93624 119.323 5.71221 116.684 5.71221C115.754 5.71221 114.899 6.3526 114.474 7.32422C113.937 8.55532 113.867 9.78089 113.867 11.139V21.9869C113.861 22.3899 113.528 22.7157 113.12 22.7157" fill="#bbb"/>
<path fill-rule="evenodd" clip-rule="evenodd" d="M62.1936 13.0935C62.1936 14.6227 62.2312 15.8979 61.4786 17.256C60.8711 18.3601 59.9035 19.0391 58.8337 19.0391C57.366 19.0391 56.5059 17.8909 56.5059 16.196C56.5059 12.8505 59.425 12.2433 62.1936 12.2433V13.0935ZM66.0481 22.6607C65.7955 22.8925 65.4299 22.9091 65.145 22.7545C63.8763 21.6725 63.6451 21.1701 62.9516 20.1377C60.855 22.3349 59.3659 22.9919 56.651 22.9919C53.4309 22.9919 50.9311 20.9548 50.9311 16.8751C50.9311 13.6897 52.6084 11.5201 55.006 10.4601C57.0811 9.52162 59.9787 9.356 62.1936 9.09653V8.58864C62.1936 7.65565 62.2635 6.55153 61.7259 5.74553C61.2636 5.02233 60.3712 4.72421 59.5809 4.72421C58.124 4.72421 56.8285 5.49158 56.5113 7.08151C56.4468 7.43483 56.1941 7.78263 55.8447 7.79919L52.1407 7.39066C51.8289 7.3189 51.4794 7.05943 51.5708 6.5681C52.4202 1.95287 56.4844 0.561676 60.1185 0.561676C61.9786 0.561676 64.4085 1.06957 65.8761 2.51597C67.7361 4.29913 67.5587 6.67851 67.5587 9.26767V15.3845C67.5587 17.2229 68.3006 18.0289 68.9995 19.0226C69.2414 19.3759 69.2952 19.801 68.9833 20.066C68.2038 20.734 66.8169 21.9761 66.0535 22.6717L66.0481 22.6606" fill="#bbb"/>
<path fill-rule="evenodd" clip-rule="evenodd" d="M12.0881 13.0934C12.0881 14.6226 12.1257 15.8979 11.3731 17.256C10.7656 18.3601 9.80333 19.0391 8.72815 19.0391C7.26053 19.0391 6.40577 17.8908 6.40577 16.196C6.40577 12.8505 9.32488 12.2433 12.0881 12.2433V13.0934ZM15.9426 22.6606C15.6899 22.8925 15.3244 22.9091 15.0395 22.7545C13.7707 21.6725 13.545 21.1701 12.8461 20.1377C10.7495 22.3349 9.26575 22.9919 6.54554 22.9919C3.33075 22.9919 0.825592 20.9548 0.825592 16.8751C0.825592 13.6897 2.50825 11.5201 4.90052 10.4601C6.97561 9.52161 9.87322 9.35599 12.0881 9.09653V8.58863C12.0881 7.65564 12.158 6.55152 11.6258 5.74552C11.1581 5.02232 10.2657 4.7242 9.48078 4.7242C8.02391 4.7242 6.72295 5.49157 6.40577 7.0815C6.34126 7.43482 6.08859 7.78262 5.74453 7.79918L2.03517 7.39065C1.72337 7.31889 1.37931 7.05942 1.46532 6.56809C2.32009 1.95286 6.37889 0.561668 10.013 0.561668C11.8731 0.561668 14.303 1.06956 15.7706 2.51596C17.6306 4.29912 17.4532 6.6785 17.4532 9.26766V15.3845C17.4532 17.2229 18.1951 18.0289 18.894 19.0226C19.1413 19.3759 19.195 19.801 18.8832 20.066C18.1037 20.734 16.7167 21.9761 15.9534 22.6717L15.9426 22.6606" fill="#bbb"/>
</g>
<defs>
<clipPath id="clip0">
<rect width="123.5" height="38.2192" fill="#ffffff" transform="translate(0.824951 0.561684)"/>
</clipPath>
</defs>
</svg>
