<svg width="120" height="37" viewBox="0 0 120 37" fill="none" xmlns="http://www.w3.org/2000/svg">
<path d="M89.2434 35.5156L99.2428 24.4839L89.2434 13.4507H99.7938L104.746 18.8099L109.515 13.4507H119.698L109.746 24.4384L119.834 35.5156H109.241L104.333 30.1124L99.4716 35.5156H89.2434Z" fill="#888888"/>
<path d="M89.2425 8.50368H77.9174V13.4498H89.2425V20.9041H77.9174V27.7462H89.2425V35.5147H69.5935V0.756622H89.2425V8.50368Z" fill="#888888"/>
<path d="M61.3063 0.756798V14.9815H61.2151C59.3801 12.9105 57.0873 12.1908 54.427 12.1908C48.9777 12.1908 44.8728 15.8281 43.4319 20.6371C41.7887 15.3383 37.5509 12.0915 31.2669 12.0915C26.1637 12.0915 22.1339 14.3406 20.0309 18.0056V13.4505H9.48256V8.50488H20.9938V0.756798H0.0795326V35.5154H9.48256V20.9043H18.8548C18.5754 21.9777 18.4263 23.1268 18.4263 24.3394C18.4263 31.5899 24.0675 36.6774 31.2669 36.6774C37.321 36.6774 41.3106 33.8867 43.4209 28.7987H35.3629C34.2728 30.3272 33.446 30.7812 31.2669 30.7812C28.7401 30.7812 26.5615 28.6165 26.5615 26.0506H42.9695C43.6811 31.8095 48.2499 36.7761 54.5198 36.7761C57.2244 36.7761 59.7007 35.4699 61.2151 33.2642H61.3063V35.5144H69.5953V0.756798H61.3063ZM26.8232 21.0082C27.3461 18.8005 29.0899 17.3576 31.2669 17.3576C33.6634 17.3576 35.3186 18.756 35.7539 21.0082C35.9374 21.0082 26.8232 21.0082 26.8232 21.0082ZM56.2761 30.2228C53.2207 30.2228 51.322 27.4275 51.322 24.5088C51.322 21.389 52.9736 18.389 56.2761 18.389C59.7007 18.389 61.065 21.389 61.065 24.5088C61.0644 27.4674 59.6188 30.2228 56.2761 30.2228Z" fill="#555555"/>
</svg>
