<svg width="125" height="39" viewBox="0 0 125 39" fill="none" xmlns="http://www.w3.org/2000/svg">
<g clip-path="url(#clip0)">
<path d="M36.1692 27.6473C35.9755 27.1815 35.7939 26.6918 35.6002 26.2738L34.7042 24.2792L34.6679 24.2434C32.0041 18.5105 29.1588 12.6821 26.1439 6.94921L26.0228 6.71034C25.7201 6.14899 25.4174 5.52793 25.1026 4.95464C24.7152 4.27386 24.3398 3.54531 23.7223 2.85259C23.1204 2.12777 22.3629 1.54381 21.5044 1.14282C20.646 0.74184 19.708 0.533844 18.7581 0.533844C17.8083 0.533844 16.8703 0.74184 16.0118 1.14282C15.1533 1.54381 14.3958 2.12777 13.7939 2.85259C13.2248 3.54531 12.801 4.27386 12.4136 4.95464C12.1109 5.5757 11.8082 6.18482 11.4934 6.74617L11.3723 6.98504C8.40587 12.7179 5.51209 18.5463 2.84836 24.2792L2.77571 24.3509C2.50933 24.9719 2.19453 25.6169 1.89183 26.3096C1.69811 26.7276 1.50438 27.1815 1.31065 27.6831C0.787633 28.9966 0.620616 30.4219 0.826063 31.8185C1.03151 33.2151 1.60233 34.5348 2.48227 35.6475C3.3622 36.7602 4.52088 37.6276 5.84412 38.1641C7.16735 38.7005 8.60946 38.8877 10.0283 38.707C11.3886 38.5303 12.6985 38.0834 13.8786 37.3932C15.4527 36.5213 16.9661 35.2553 18.6612 33.4279C20.3564 35.2553 21.9062 36.5213 23.4439 37.4051C24.9226 38.2613 26.5972 38.7338 28.3112 38.7786C30.2961 38.7867 32.217 38.0862 33.7192 36.8064C35.2214 35.5266 36.2034 33.7539 36.4841 31.8156C36.8084 30.4227 36.6986 28.9657 36.1692 27.6353V27.6473ZM18.7823 29.6299C16.6998 27.0023 15.3437 24.5897 14.8836 22.5235C14.693 21.7579 14.6519 20.9634 14.7625 20.1826C14.8473 19.5735 15.0773 19.036 15.3921 18.5822C16.1186 17.5431 17.3899 16.8981 18.7823 16.8981C19.4436 16.8782 20.0995 17.0206 20.6912 17.3124C21.2829 17.6042 21.7919 18.0364 22.1725 18.5702C22.4873 19.048 22.7174 19.5735 22.79 20.1826C22.9111 20.8753 22.8627 21.6755 22.669 22.5235C22.2089 24.5539 20.8528 26.9904 18.7823 29.6299ZM34.2078 31.3975C34.0702 32.3816 33.6736 33.313 33.0576 34.0988C32.4415 34.8846 31.6274 35.4975 30.6965 35.8763C29.7763 36.2585 28.7592 36.366 27.7664 36.2585C26.7977 36.1391 25.8291 35.8286 24.8363 35.2553C23.1878 34.2502 21.7055 33.0015 20.4411 31.5528C22.9838 28.4475 24.5215 25.6169 25.1026 23.0968C25.3811 21.9025 25.4174 20.8275 25.2964 19.8362C25.1452 18.8966 24.79 18.0003 24.2551 17.2087C23.6444 16.3502 22.8292 15.653 21.8813 15.1781C20.9333 14.7033 19.8816 14.4655 18.8187 14.4855C16.5787 14.4855 14.5809 15.5127 13.3701 17.1967C12.8251 17.9864 12.4728 18.8898 12.3409 19.8362C12.1835 20.8395 12.2199 21.9502 12.5347 23.0968C13.1158 25.6169 14.6899 28.4833 17.1962 31.5767C15.9533 33.0531 14.4675 34.3128 12.801 35.3031C11.7961 35.8763 10.8396 36.1749 9.87093 36.2944C8.36457 36.4847 6.84293 36.0809 5.63675 35.1706C4.43058 34.2604 3.63737 32.9173 3.42953 31.4334C3.30845 30.4779 3.39321 29.5224 3.78066 28.4475C3.90174 28.0653 4.08336 27.6831 4.27709 27.2293C4.54346 26.6082 4.85826 25.9632 5.16096 25.3183L5.20939 25.2347C7.8247 19.5376 10.6822 13.7212 13.6486 8.02412L13.7697 7.78525C14.0724 7.21196 14.3751 6.60285 14.6899 6.02956C15.0047 5.42044 15.3437 4.83521 15.7796 4.35747C16.1569 3.9132 16.6283 3.55591 17.1607 3.31076C17.6931 3.06561 18.2735 2.93857 18.861 2.93857C19.4486 2.93857 20.029 3.06561 20.5614 3.31076C21.0937 3.55591 21.5652 3.9132 21.9425 4.35747C22.3663 4.83521 22.7174 5.42044 23.0322 6.02956C23.3349 6.60285 23.6376 7.22391 23.9524 7.78525L24.0735 8.02412C27.0278 13.7212 29.8853 19.5376 32.549 25.2347L32.5853 25.2705C32.9001 25.8916 33.1665 26.5843 33.4692 27.1815C33.6629 27.6473 33.8566 28.0175 33.9777 28.4117C34.2078 29.4866 34.3288 30.4421 34.2078 31.3975ZM51.0619 29.3671C50.1496 29.3803 49.2459 29.1907 48.418 28.8123C47.59 28.4339 46.8591 27.8766 46.2793 27.1815C44.9766 25.7004 44.2852 23.7908 44.3421 21.8308C44.3221 19.8281 45.0359 17.8857 46.352 16.3607C46.9608 15.6568 47.7186 15.093 48.5721 14.7092C49.4256 14.3254 50.354 14.1308 51.292 14.1392C52.1746 14.1154 53.0488 14.3133 53.8325 14.7145C54.6162 15.1156 55.2836 15.7068 55.7719 16.4323L55.893 14.5572H59.4285V28.9849H55.8809L55.7598 26.8829C55.2563 27.6576 54.5604 28.2925 53.7382 28.7273C52.916 29.1621 51.9947 29.3824 51.0619 29.3671ZM51.9821 25.9274C52.6844 25.9274 53.3019 25.7363 53.8831 25.39C54.4158 25.0078 54.8517 24.5061 55.1907 23.897C55.4934 23.2879 55.6508 22.5594 55.6508 21.7472C55.698 21.0418 55.5588 20.3364 55.2469 19.7C54.9349 19.0636 54.4608 18.5179 53.871 18.1164C53.3042 17.7681 52.6499 17.5834 51.9821 17.5834C51.3144 17.5834 50.66 17.7681 50.0933 18.1164C49.5606 18.4986 49.1247 19.0002 48.7857 19.6093C48.4655 20.2811 48.308 21.017 48.3256 21.7591C48.2784 22.4645 48.4176 23.1699 48.7295 23.8063C49.0415 24.4428 49.5156 24.9884 50.1054 25.39C50.6745 25.7363 51.292 25.9274 51.9821 25.9274ZM65.4824 10.6636C65.4824 11.0817 65.4098 11.4638 65.2161 11.7744C65.0223 12.073 64.756 12.3477 64.4048 12.5388C64.0537 12.7299 63.6784 12.8015 63.2909 12.8015C62.9035 12.8015 62.516 12.7299 62.1649 12.5388C61.8328 12.3564 61.5535 12.0933 61.3536 11.7744C61.1661 11.4341 61.0742 11.0507 61.0873 10.6636C61.0873 10.2337 61.172 9.85148 61.3536 9.55289C61.5474 9.19458 61.8258 8.9796 62.1649 8.7885C62.516 8.59741 62.8913 8.5138 63.2909 8.5138C63.6763 8.50504 64.0574 8.59508 64.397 8.77512C64.7366 8.95516 65.0229 9.21903 65.2282 9.54094C65.4044 9.88915 65.4917 10.2746 65.4824 10.6636ZM61.3657 28.9372V14.5333H65.2161V28.9611H61.3536L61.3657 28.9372ZM75.5078 18.3075V18.3552C75.3261 18.2716 75.084 18.2358 74.9024 18.2C74.6602 18.1522 74.4665 18.1522 74.2364 18.1522C73.1588 18.1522 72.3476 18.4627 71.8148 19.1077C71.2337 19.7646 70.9673 20.6842 70.9673 21.8666V28.9491H67.1049V14.5214H70.6525L70.7736 16.707C71.161 15.9427 71.6211 15.3694 72.275 14.9394C72.9253 14.5216 73.6909 14.313 74.4665 14.3422C74.745 14.3422 75.0113 14.3661 75.2414 14.4139C75.3625 14.4497 75.4351 14.4497 75.5078 14.4855V18.3075ZM77.0576 28.9372V8.60935H80.9079V16.3726C81.4527 15.6799 82.0702 15.1424 82.8451 14.7244C84.0719 14.1311 85.4655 13.9628 86.8012 14.2467C88.1368 14.5305 89.3365 15.25 90.2067 16.289C91.5123 17.7731 92.2039 19.6875 92.144 21.6516C92.1639 23.6543 91.4502 25.5968 90.1341 27.1218C89.5253 27.8257 88.7675 28.3894 87.914 28.7732C87.0605 29.157 86.132 29.3516 85.1941 29.3433C84.3115 29.3671 83.4373 29.1691 82.6536 28.768C81.8699 28.3668 81.2025 27.7757 80.7141 27.0501L80.5931 28.9252L77.0576 28.9611V28.9372ZM84.5039 25.9274C85.1941 25.9274 85.8116 25.7363 86.3927 25.39C86.9255 25.0078 87.3614 24.5061 87.7004 23.897C88.0152 23.2879 88.1605 22.5594 88.1605 21.7472C88.1605 20.947 88.0152 20.2184 87.7004 19.6093C87.3824 19.022 86.9357 18.5119 86.3927 18.1164C85.826 17.7681 85.1717 17.5834 84.5039 17.5834C83.8362 17.5834 83.1818 17.7681 82.6151 18.1164C82.0702 18.4986 81.6465 19.0002 81.2953 19.6093C80.9751 20.2811 80.8176 21.017 80.8352 21.7591C80.788 22.4645 80.9272 23.1699 81.2392 23.8063C81.5512 24.4428 82.0253 24.9884 82.6151 25.39C83.1842 25.7363 83.8017 25.9274 84.5039 25.9274ZM93.5969 28.9491V14.5214H97.1445L97.2656 16.3965C97.7114 15.6777 98.3438 15.0895 99.0974 14.6926C99.8509 14.2958 100.698 14.1047 101.552 14.1392C102.528 14.1226 103.487 14.3901 104.31 14.9085C105.132 15.4268 105.782 16.1729 106.177 17.0534C106.601 17.9611 106.831 19.0838 106.831 20.3379V28.9849H102.968V20.8395C102.968 19.8362 102.738 19.048 102.278 18.4627C101.818 17.8894 101.189 17.5789 100.389 17.5789C99.8083 17.5789 99.2998 17.6983 98.8518 17.9611C98.428 18.2358 98.0769 18.5822 97.8105 19.0719C97.5412 19.5668 97.4076 20.1227 97.423 20.6842V28.9491H93.5969ZM108.756 28.9491V8.59741H112.618V16.3607C113.142 15.6641 113.822 15.0974 114.606 14.7055C115.39 14.3137 116.256 14.1075 117.135 14.1034C118.047 14.0902 118.951 14.2798 119.779 14.6582C120.607 15.0366 121.338 15.594 121.917 16.289C123.214 17.773 123.9 19.6816 123.842 21.6397C123.863 23.6426 123.15 25.5854 121.833 27.1098C121.224 27.8137 120.466 28.3775 119.612 28.7613C118.759 29.1451 117.83 29.3397 116.893 29.3313C116.01 29.3551 115.136 29.1572 114.352 28.756C113.568 28.3549 112.901 27.7637 112.413 27.0382L112.304 28.9133L108.756 28.9491ZM116.239 25.9274C116.941 25.9274 117.558 25.7363 118.128 25.39C118.672 25.0078 119.096 24.5061 119.447 23.897C119.75 23.2879 119.907 22.5594 119.907 21.7472C119.955 21.0418 119.815 20.3364 119.503 19.7C119.191 19.0636 118.717 18.5179 118.128 18.1164C117.561 17.7681 116.906 17.5834 116.239 17.5834C115.571 17.5834 114.917 17.7681 114.35 18.1164C113.817 18.4986 113.381 19.0002 113.042 19.6093C112.704 20.2751 112.546 21.0154 112.582 21.7591C112.535 22.4645 112.674 23.1699 112.986 23.8063C113.298 24.4428 113.772 24.9884 114.362 25.39C114.931 25.7363 115.512 25.9274 116.239 25.9274Z" fill="#888888"/>
</g>
<defs>
<clipPath id="clip0">
<rect width="123.5" height="38.2192" fill="white" transform="translate(0.769836 0.561684)"/>
</clipPath>
</defs>
</svg>
