<svg width="144" height="35" viewBox="0 0 144 35" fill="none" xmlns="http://www.w3.org/2000/svg">
<g clip-path="url(#clip0)">
<path d="M51.2893 12.5021V14.3973H51.3477C52.035 13.3826 53.176 12.1876 55.705 12.1876C57.6725 12.1876 59.1818 13.1813 59.8286 14.6824H59.887C60.4396 13.9235 61.0729 13.349 61.7827 12.9423C62.6227 12.4601 63.557 12.1834 64.7339 12.1834C67.3977 12.1834 69.756 13.9025 69.756 18.238V26.4604H65.6952V18.8125C65.6952 16.6154 64.8956 15.3449 63.2336 15.3449C62.0163 15.3449 61.1313 16.108 60.7944 17.0472C60.6776 17.3701 60.6237 17.8103 60.6237 18.1793V26.4646H56.563V18.5022C56.563 16.6363 55.7948 15.3407 54.1552 15.3407C52.8436 15.3407 52.0215 16.3051 51.6846 17.1311C51.5409 17.4833 51.496 17.89 51.496 18.2716V26.4604H47.4307V12.5021H51.2893ZM90.7157 12.5021V15.1352H90.828C91.5737 13.1226 93.3435 12.1876 94.8978 12.1876C95.2886 12.1876 95.5042 12.2169 95.8186 12.2756V15.9319C95.4458 15.8816 95.0999 15.8313 94.6148 15.8313C92.8539 15.8313 91.6276 16.7873 91.3176 18.2842C91.2503 18.5944 91.2278 18.9299 91.2278 19.3156V26.4646H87.0592V12.5021H90.7157ZM101.479 7.87722V12.2714H105V15.8271H101.479V21.0725C101.479 22.7706 101.941 23.5924 103.316 23.5924C103.963 23.5924 104.439 23.517 104.852 23.4205L104.906 26.3682C104.353 26.5611 103.177 26.7707 101.982 26.7707C100.576 26.7707 99.4033 26.3137 98.689 25.6051C97.8715 24.7958 97.4942 23.4708 97.4942 21.584V7.87722H101.479ZM44.6007 26.4604H40.5579V7.87722H44.6007V26.4604ZM33.8199 21.475C33.8199 21.7308 33.7974 21.9991 33.7211 22.2297C33.4066 23.1983 32.333 24.0159 30.9944 24.0159C29.8759 24.0159 28.9865 23.4247 28.9865 22.171C28.9865 20.2548 31.2505 19.7223 33.8244 19.7349V21.475H33.8199ZM37.8582 18.1332C37.8582 14.9675 36.4118 12.1876 31.52 12.1876C29.009 12.1876 27.0145 12.8459 25.9274 13.4329L26.7225 15.9738C27.7153 15.3868 29.3009 14.9046 30.8013 14.9046C33.2854 14.9004 33.6896 16.217 33.6896 17.0598V17.2611C28.2768 17.2527 24.8583 19.0011 24.8583 22.5652C24.8583 24.7413 26.5968 26.7791 29.6244 26.7791C31.4885 26.7791 33.0428 26.0873 33.9771 24.9761H34.067C34.067 24.9761 34.6869 27.3871 38.0918 26.4646C37.9121 25.4583 37.8537 24.3891 37.8537 23.1019V18.1332H37.8582ZM4.54996 7.87722C4.96772 9.84372 6.15361 15.5545 6.15361 15.5545C6.65222 17.9026 7.11041 20.3639 7.45629 22.3094H7.51918C7.85608 20.2423 8.38614 18.2842 8.95213 15.8606L10.9511 7.87722H15.3757L17.2444 16.0661C17.734 18.3429 18.1248 20.0997 18.4348 22.2172H18.4932C18.8301 20.0787 19.2703 18.2506 19.7509 15.9109L21.5477 7.87722H25.7927L20.5325 26.4604C17.1815 27.1439 15.8968 25.886 15.4386 23.8901C14.9804 21.8901 14.082 18.0871 14.082 18.0871C13.6193 16.0032 13.26 14.5356 13.0084 12.3972H12.9455C12.5862 14.5147 12.2088 15.999 11.6518 18.0829L9.44625 26.4646C6.02334 27.102 4.83745 26.1585 4.18162 23.5966C3.61562 21.4037 0.0849037 7.88141 0.0849037 7.88141H4.54996V7.87722ZM80.3212 21.475C80.3212 21.7308 80.2987 21.9991 80.2224 22.2297C79.9079 23.1983 78.8343 24.0159 77.4957 24.0159C76.3772 24.0159 75.4878 23.4247 75.4878 22.171C75.4878 20.2548 77.7518 19.7223 80.3257 19.7349V21.475H80.3212ZM84.3595 18.1332C84.3595 14.9675 82.9131 12.1876 78.0213 12.1876C75.5103 12.1876 73.5158 12.8459 72.4287 13.4329L73.2238 15.9738C74.2165 15.3868 75.8022 14.9046 77.3026 14.9046C79.7821 14.9004 80.1909 16.217 80.1909 17.0598V17.2611C74.7825 17.2527 71.3641 19.0011 71.3641 22.5652C71.3641 24.7413 73.107 26.7791 76.1301 26.7791C77.9898 26.7791 79.5486 26.0873 80.4784 24.9761H80.5727C80.5727 24.9761 81.1926 27.3871 84.5976 26.4646C84.4179 25.4583 84.3595 24.3891 84.3595 23.1019V18.1332Z" fill="#ccc"/>
<path d="M121.393 20.0615C121.792 20.7401 121.765 21.4975 121.339 21.8434L113.987 26.8829C113.222 27.3164 112.075 26.791 111.426 25.692C110.772 24.5887 110.889 23.3583 111.654 22.9249L119.795 19.2208C120.305 19.0282 120.995 19.3828 121.393 20.0615ZM131.069 20.0615C131.472 19.3828 132.157 19.0325 132.668 19.2164L140.812 22.9205C141.578 23.354 141.69 24.5843 141.041 25.6876C140.387 26.7866 139.236 27.3076 138.475 26.8785L131.123 21.8391C130.702 21.4975 130.671 20.7357 131.069 20.0615ZM126.229 22.7935C127.03 22.7935 127.689 23.1963 127.778 23.7261L128.571 32.4741C128.571 33.341 127.536 34.0503 126.233 34.0503C124.935 34.0503 123.896 33.341 123.896 32.4741L124.684 23.7261C124.774 23.1963 125.432 22.7935 126.229 22.7935ZM131.123 12.8197L138.475 7.77582C139.236 7.34237 140.387 7.86339 141.041 8.96673C141.69 10.0701 141.578 11.3004 140.812 11.7338L132.668 15.4423C132.157 15.6262 131.468 15.2759 131.069 14.5973C130.671 13.9186 130.702 13.1612 131.123 12.8197ZM119.795 15.4423L111.654 11.7338C110.893 11.3004 110.777 10.0701 111.426 8.96673C112.075 7.86339 113.226 7.34237 113.987 7.77582L121.339 12.8197C121.765 13.1568 121.792 13.9186 121.393 14.5973C120.995 15.2759 120.305 15.6262 119.795 15.4423ZM124.684 10.9326L123.896 2.18468C123.896 1.31777 124.93 0.608476 126.233 0.608476C127.536 0.608476 128.571 1.31777 128.571 2.18468L127.778 10.9326C127.689 11.458 127.03 11.8652 126.229 11.8652C125.432 11.8652 124.774 11.458 124.684 10.9326ZM143.029 26.8479V26.629H143.23C143.297 26.629 143.342 26.6727 143.342 26.7384C143.342 26.7997 143.297 26.8479 143.23 26.8479H143.029ZM142.863 27.2463C142.863 27.2682 142.881 27.2901 142.908 27.2901H142.993C143.015 27.2901 143.038 27.2682 143.038 27.2463V26.9967H143.177L143.288 27.2594C143.297 27.277 143.311 27.2901 143.329 27.2901H143.432C143.463 27.2901 143.485 27.2594 143.472 27.2288C143.432 27.15 143.391 27.0668 143.351 26.9836C143.418 26.9617 143.521 26.896 143.521 26.7384C143.521 26.572 143.382 26.4757 143.244 26.4757H142.908C142.885 26.4757 142.863 26.4976 142.863 26.5195V27.2463ZM142.5 26.8829C142.5 26.5283 142.796 26.2393 143.159 26.2393C143.521 26.2393 143.817 26.5239 143.817 26.8829C143.817 27.2376 143.526 27.5265 143.159 27.5265C142.791 27.5265 142.5 27.2376 142.5 26.8829ZM142.344 26.8829C142.344 27.3207 142.706 27.6798 143.159 27.6798C143.606 27.6798 143.974 27.3207 143.974 26.8829C143.974 26.4451 143.606 26.086 143.159 26.086C142.706 26.086 142.344 26.4451 142.344 26.8829Z" fill="#888888"/>
</g>
<defs>
<clipPath id="clip0">
<rect width="143.884" height="33.4418" fill="white" transform="translate(0.0851517 0.608486)"/>
</clipPath>
</defs>
</svg>
