<svg width="118" height="41" viewBox="0 0 118 41" fill="none" xmlns="http://www.w3.org/2000/svg">
<g clip-path="url(#clip0)">
<path fill-rule="evenodd" clip-rule="evenodd" d="M103.79 18.9437L96.3112 31.8837L89.9305 31.9091L103.79 7.55321L117.597 31.9091H111.116L103.79 18.9424V18.9437ZM83.6522 26.276H90.7986L87.4806 31.9091H78.1661L78.1914 25.0501V7.70295H83.6787L83.6535 26.276H83.6522ZM64.0528 7.70422C70.8669 7.7296 76.3795 13.1355 76.3542 19.8181C76.329 26.4765 70.8163 31.8837 64.001 31.8837C57.2123 31.8583 51.6996 26.4524 51.6996 19.7686C51.7249 13.1101 57.2375 7.70422 64.0528 7.70422ZM64.0276 26.2519C67.6766 26.2519 70.6104 23.3725 70.6104 19.8181C70.6369 16.2649 67.6766 13.3601 64.0528 13.3601C60.4279 13.3348 57.4675 16.2395 57.4675 19.7939C57.4422 23.3471 60.4026 26.2519 64.0263 26.2519H64.0276ZM41.5424 17.8955C41.4666 16.893 41.2101 15.5669 40.8272 14.2916C40.0395 11.6573 38.6699 9.23553 36.8207 7.20677C35.8503 6.15604 34.7536 5.17891 33.1186 4.02793C31.8723 3.41018 30.6469 2.75078 29.4444 2.05084C28.6534 1.60034 27.7083 1.04833 26.4588 0.648597C24.9771 0.297341 23.4626 0.104648 21.9405 0.0737418C20.4622 0.0229819 18.9801 0.149882 17.5511 0.423985C16.045 0.673977 14.7941 1.07371 13.1352 1.47471C9.38259 3.10157 6.47402 5.55454 3.97229 8.80951C-4.75594 21.049 3.13081 38.1957 17.704 40.2222C20.1034 40.5484 22.5027 40.4227 24.7732 39.8974L26.3817 39.4723C26.4322 39.4469 26.5093 39.4215 26.5598 39.4215L28.3982 38.721C28.4993 38.6703 28.5764 38.6449 28.6787 38.5954L29.4444 38.2452C30.9135 37.517 32.2925 36.6183 33.5533 35.5676C32.4057 36.6148 31.1576 37.5453 29.8272 38.3454L29.903 38.3962C30.1595 38.32 30.3882 38.2451 30.6435 38.1957C30.6435 38.1957 30.6435 38.5954 30.5929 38.5205C30.1848 38.8213 30.8229 38.5459 31.6391 38.1195C32.4566 37.6944 33.2475 37.1678 33.9614 36.5675C35.0088 35.6919 35.9274 34.7402 37.2288 33.1895C38.5555 30.8609 40.2157 28.833 40.9814 26.1047C41.2366 25.3788 41.4653 24.5286 41.6194 23.6517C41.7711 22.7761 41.8747 21.8751 41.8747 20.9487C41.8494 20.0224 41.7471 19.0706 41.5424 17.8955ZM22.6556 38.471C27.1221 37.7693 30.8734 35.2922 33.9361 31.9129C34.7789 30.6857 35.4422 29.5589 36.2584 28.333C37.2793 25.8293 37.2035 23.6022 37.5346 22.0261C37.9439 19.1709 36.9736 16.8689 36.1574 14.4159C34.9065 11.562 33.2475 9.43513 30.3377 7.78289C22.9867 3.2272 12.9823 4.50254 8.21006 11.312C8.18479 11.312 8.05592 11.4871 7.80069 11.8373C8.13299 10.4364 8.97574 9.61025 9.81723 8.80824C12.319 6.75628 15.2288 5.12815 18.5467 4.32869C22.2993 3.92768 26.0241 4.32869 29.3673 5.95554C34.3708 8.80824 37.6887 13.2903 38.5302 18.5947V23.502C37.484 31.5372 30.5929 37.6449 22.6556 38.471ZM41.0067 20.1975C40.8272 8.43389 29.1639 0.498856 17.8063 2.1016C14.4884 2.92645 10.8634 4.57868 8.28587 6.88191C7.03501 7.70675 6.44875 9.23463 5.19789 10.4605C0.194438 17.7953 1.06372 27.182 7.29024 32.89C8.08893 33.683 8.94176 34.4192 9.8425 35.093C4.63689 31.9623 2.28805 27.2303 1.47183 21.4754C1.47183 19.4221 1.87994 17.3943 2.31332 15.3423C5.22442 6.35527 14.386 -0.17752 24.3664 1.47471C26.0254 1.87572 27.6843 2.30083 29.3698 2.70183C31.4622 3.52668 33.5293 4.7538 35.1883 6.38192C36.8472 8.00751 38.0981 10.0607 39.3489 12.0873C40.1904 13.7155 40.5998 15.7674 41.0079 17.3943C41.0837 18.3206 41.0837 19.2724 41.0079 20.1988L41.0067 20.1975Z" fill="#bbb"/>
<path fill-rule="evenodd" clip-rule="evenodd" d="M30.6464 20.3732C30.6464 25.4301 26.4098 29.5353 21.1777 29.5353C15.9468 29.5353 11.7091 25.4301 11.7091 20.3732C11.7091 15.3175 15.9456 11.2123 21.1777 11.2123C26.4098 11.2123 30.6464 15.3175 30.6464 20.3745V20.3732Z" fill="#bbb"/>
<path fill-rule="evenodd" clip-rule="evenodd" d="M30.7006 18.8215C30.573 18.121 30.3683 17.5702 30.1649 16.7949C29.3474 15.0919 28.1483 13.7658 26.5652 12.6389C20.6444 8.7101 12.5024 12.4892 11.6357 19.1983C11.3046 21.8518 12.2485 24.405 13.9327 26.358C13.4223 25.8314 12.8613 25.2819 12.4784 24.655L12.4279 24.7058C12.4784 24.8555 12.6831 24.9558 12.7337 25.1055C12.7337 25.1055 12.529 25.1055 12.5808 25.0801C12.4279 24.9063 12.5555 25.1817 12.7842 25.556C12.9889 25.9316 13.2441 26.2832 13.5499 26.608C13.9845 27.0839 14.4432 27.509 15.2089 28.0851C16.3334 28.66 17.3277 29.4112 18.6291 29.7615C18.9867 29.863 19.3948 29.962 19.8042 30.0368C20.2376 30.113 20.6457 30.1384 21.1056 30.1384C21.539 30.1384 21.9989 30.0876 22.5599 29.9861C23.1384 29.9177 23.7102 29.8009 24.2694 29.6371C25.5185 29.2595 26.6691 28.6095 27.6391 27.7336C28.1243 27.2844 28.8142 26.7083 29.3486 25.957C29.7833 25.1068 29.8338 24.6804 30.0385 24.3048C30.2419 23.9292 30.4972 23.5041 30.6766 22.9279C30.8228 22.2445 30.9082 21.5493 30.9318 20.8506C30.9065 20.1501 30.856 19.4737 30.7019 18.8227L30.7006 18.8215ZM24.6257 14.1668C25.4937 14.6668 25.6213 14.7416 25.1614 14.4168C25.826 14.5665 26.2341 14.9421 26.6422 15.3178C27.6379 16.4446 28.4541 17.7707 28.8622 19.2973C29.0922 21.0244 28.9127 22.7515 28.1736 24.2794C26.8469 26.6068 24.728 28.1587 22.201 28.5838C21.9205 28.5838 21.6148 28.5838 21.333 28.6092C22.0482 28.4836 22.5081 28.0331 23.8095 27.5572C25.212 27.0572 26.7951 24.7299 27.5621 23.3772C29.8073 19.6971 27.1527 16.2936 24.6257 14.1668ZM19.8282 28.6333C15.9493 28.2336 12.9624 25.0548 12.5542 21.3747C12.9105 23.4279 14.1361 25.004 15.7951 26.4063C16.3826 26.7819 17.2494 27.3072 17.8369 27.6829C18.8326 28.0585 19.4188 28.4595 20.3892 28.6346H19.8282V28.6333ZM30.2659 21.9508C30.0891 22.7274 29.9096 23.4774 29.7302 24.254C29.3474 25.2058 28.7864 26.1816 28.0207 26.957C27.255 27.7336 26.2847 28.3339 25.3156 28.91C24.5499 29.3097 23.5795 29.5102 22.7886 29.7094C22.3287 29.7602 21.7929 29.5597 21.333 29.5356C26.9998 29.3846 30.8787 24.1043 30.0373 18.8722C29.6279 17.3456 28.8117 16.0182 27.816 14.6921C27.4079 14.116 26.6157 13.7658 26.0294 13.1897C22.4815 10.9626 17.7864 11.4131 15.1065 14.3419C14.7307 14.7268 14.3808 15.1363 14.0591 15.5678C15.4893 13.465 17.7864 11.9892 20.5421 11.5628C21.5124 11.5374 22.5081 11.7138 23.4772 11.8889C27.7655 13.1897 30.9558 17.3456 30.2659 21.9521V21.9508Z" fill="#888888"/>
</g>
<defs>
<clipPath id="clip0">
<rect width="117.505" height="40.6079" fill="white" transform="translate(0.220551 0.024868)"/>
</clipPath>
</defs>
</svg>
