<svg width="115" height="39" viewBox="0 0 115 39" fill="none" xmlns="http://www.w3.org/2000/svg">
<g clip-path="url(#clip0)">
<path d="M49.0368 19.8192C49.0368 25.1242 44.8532 29.0333 39.7189 29.0333C34.5847 29.0333 30.4011 25.1242 30.4011 19.8192C30.4011 14.4768 34.5847 10.605 39.7189 10.605C44.8532 10.605 49.0368 14.4768 49.0368 19.8192ZM44.9579 19.8192C44.9579 16.5041 42.5331 14.2359 39.7189 14.2359C36.9047 14.2359 34.48 16.5041 34.48 19.8192C34.48 23.101 36.9047 25.4025 39.7189 25.4025C42.5331 25.4025 44.9579 23.0969 44.9579 19.8192Z" fill="#888888"/>
<path d="M69.1426 19.8192C69.1426 25.1242 64.959 29.0333 59.8247 29.0333C54.6905 29.0333 50.5069 25.1242 50.5069 19.8192C50.5069 14.481 54.6905 10.605 59.8247 10.605C64.959 10.605 69.1426 14.4768 69.1426 19.8192ZM65.0637 19.8192C65.0637 16.5041 62.6389 14.2359 59.8247 14.2359C57.0105 14.2359 54.5858 16.5041 54.5858 19.8192C54.5858 23.101 57.0105 25.4025 59.8247 25.4025C62.6389 25.4025 65.0637 23.0969 65.0637 19.8192Z" fill="#bbb"/>
<path d="M88.403 11.1617V27.704C88.403 34.5086 84.3576 37.2878 79.5751 37.2878C75.0732 37.2878 72.3637 34.3009 71.3419 31.8582L74.8931 30.3918C75.5255 31.8915 77.075 33.6612 79.5709 33.6612C82.6322 33.6612 84.5293 31.7876 84.5293 28.2606V26.9354H84.3869C83.4739 28.0529 81.7151 29.0292 79.4955 29.0292C74.8512 29.0292 70.5964 25.0162 70.5964 19.8524C70.5964 14.6513 74.8512 10.605 79.4955 10.605C81.7109 10.605 83.4697 11.5813 84.3869 12.6656H84.5293V11.1659H88.403V11.1617ZM84.8182 19.8524C84.8182 16.6079 82.6364 14.2359 79.8599 14.2359C77.0457 14.2359 74.6879 16.6079 74.6879 19.8524C74.6879 23.0637 77.0457 25.4025 79.8599 25.4025C82.6364 25.4025 84.8182 23.0637 84.8182 19.8524Z" fill="#888888"/>
<path d="M94.7921 1.46607V28.4687H90.8137V1.46607H94.7921Z" fill="#888888"/>
<path d="M110.291 22.8513L113.457 24.9451C112.435 26.4448 109.973 29.0287 105.718 29.0287C100.441 29.0287 96.5007 24.9825 96.5007 19.8146C96.5007 14.3351 100.475 10.6004 105.262 10.6004C110.082 10.6004 112.439 14.4057 113.21 16.4621L113.633 17.5089L101.216 22.6104C102.167 24.459 103.645 25.402 105.718 25.402C107.795 25.402 109.236 24.3884 110.291 22.8513ZM100.546 19.5362L108.846 16.1173C108.39 14.9665 107.016 14.1648 105.4 14.1648C103.327 14.1648 100.441 15.9802 100.546 19.5362Z" fill="#888888"/>
<path d="M15.3389 17.4224V13.5133H28.6184C28.7482 14.1946 28.8152 15.0005 28.8152 15.8729C28.8152 18.8058 28.0069 22.4325 25.4021 25.0164C22.8685 27.6336 19.6314 29.0294 15.343 29.0294C7.3946 29.0294 0.710876 22.607 0.710876 14.7222C0.710876 6.8374 7.3946 0.414912 15.343 0.414912C19.7402 0.414912 22.8727 2.12647 25.2263 4.3573L22.4456 7.11573C20.7579 5.54542 18.4713 4.32407 15.3389 4.32407C9.53457 4.32407 4.99499 8.96438 4.99499 14.7222C4.99499 20.48 9.53457 25.1203 15.3389 25.1203C19.1037 25.1203 21.2478 23.6206 22.6214 22.258C23.7354 21.153 24.4683 19.5744 24.7572 17.4183L15.3389 17.4224Z" fill="#888888"/>
</g>
<defs>
<clipPath id="clip0">
<rect width="113.908" height="38.2192" fill="white" transform="translate(0.56546 0.219196)"/>
</clipPath>
</defs>
</svg>
