<svg width="16" height="16" viewBox="0 0 16 16" fill="none" xmlns="http://www.w3.org/2000/svg">
<path fill-rule="evenodd" clip-rule="evenodd" d="M0 4.62069C0 2.06875 2.06875 0 4.62069 0H11.3793C13.9312 0 16 2.06875 16 4.62069V11.3793C16 13.9312 13.9312 16 11.3793 16H4.62069C2.06875 16 0 13.9312 0 11.3793V4.62069ZM1.44828 4.75862C1.44828 2.93037 2.93037 1.44828 4.75862 1.44828H11.2414C13.0696 1.44828 14.5517 2.93037 14.5517 4.75862V11.2414C14.5517 13.0696 13.0696 14.5517 11.2414 14.5517H4.75862C2.93037 14.5517 1.44828 13.0696 1.44828 11.2414V4.75862ZM8 12.069C10.2472 12.069 12.069 10.2472 12.069 8C12.069 5.75277 10.2472 3.93103 8 3.93103C5.75277 3.93103 3.93103 5.75277 3.93103 8C3.93103 10.2472 5.75277 12.069 8 12.069ZM10.6207 8C10.6207 9.44737 9.44737 10.6207 8 10.6207C6.55263 10.6207 5.37931 9.44737 5.37931 8C5.37931 6.55263 6.55263 5.37931 8 5.37931C9.44737 5.37931 10.6207 6.55263 10.6207 8ZM12.2069 4.68966C12.7401 4.68966 13.1724 4.25738 13.1724 3.72414C13.1724 3.1909 12.7401 2.75862 12.2069 2.75862C11.6737 2.75862 11.2414 3.1909 11.2414 3.72414C11.2414 4.25738 11.6737 4.68966 12.2069 4.68966Z" fill="#B9BDC3"/>
</svg>
